<?xml version="1.0" standalone="no"?>
<!DOCTYPE svg PUBLIC "-//W3C//DTD SVG 20010904//EN"
 "http://www.w3.org/TR/2001/REC-SVG-20010904/DTD/svg10.dtd">
<svg version="1.0" xmlns="http://www.w3.org/2000/svg"
 width="400.000000pt" height="400.000000pt" viewBox="0 0 400.000000 400.000000"
 preserveAspectRatio="xMidYMid meet">

<g transform="translate(0.000000,400.000000) scale(0.100000,-0.100000)"
fill="#000000" stroke="none">
<path d="M1948 3967 c-127 -96 -360 -226 -548 -305 -79 -34 -317 -112 -370
-122 -25 -4 -97 -19 -160 -33 -156 -34 -265 -45 -483 -46 l-129 -1 5 -757 c3
-498 8 -784 16 -833 6 -41 14 -95 17 -120 5 -44 55 -249 74 -300 92 -258 172
-410 319 -610 228 -310 580 -587 906 -711 27 -11 59 -24 70 -28 55 -25 119
-45 222 -71 106 -26 117 -27 166 -14 28 7 66 16 84 19 64 11 291 97 403 153
316 159 586 392 808 698 80 110 197 326 238 439 37 99 65 182 68 200 3 11 16
64 30 117 14 53 28 119 31 145 3 26 8 71 12 98 3 28 7 393 10 813 l4 762 -128
1 c-130 1 -157 2 -273 13 -106 9 -242 35 -405 77 -266 68 -598 218 -807 365
-94 67 -121 84 -129 84 -4 0 -27 -15 -51 -33z"/>
</g>
</svg>
