<?xml version="1.0" encoding="UTF-8"?>
<svg version="1.1" xmlns="http://www.w3.org/2000/svg" width="400" height="400">
<path d="M0 0 C45.42198513 -1.14073479 93.97285658 14.40865272 128.734375 44.1640625 C129.064375 44.8240625 129.394375 45.4840625 129.734375 46.1640625 C128.79456787 46.53055908 127.85476074 46.89705566 126.88647461 47.2746582 C85.5919249 63.41594312 45.9325971 81.78072295 12.9609375 112.12109375 C10.92009574 113.99365558 8.83973803 115.80235784 6.734375 117.6015625 C-0.85181145 124.22223431 -7.75882234 131.49246183 -14.265625 139.1640625 C-15.51472656 140.59685547 -15.51472656 140.59685547 -16.7890625 142.05859375 C-26.68785727 153.47554382 -35.19042207 165.7023274 -43.21289062 178.4921875 C-44.2042613 180.0666092 -45.21101807 181.63131255 -46.21875 183.1953125 C-65.09660191 212.97013583 -76.54126573 245.19636882 -85.265625 279.1640625 C-88.19557845 276.60166594 -89.74832763 273.69510787 -91.55859375 270.2734375 C-91.86559708 269.69702515 -92.1726004 269.12061279 -92.48890686 268.5267334 C-93.48231824 266.65861909 -94.46793831 264.78652542 -95.453125 262.9140625 C-96.13791263 261.62053852 -96.82313547 260.32724485 -97.50878906 259.03417969 C-98.52190922 257.12295741 -99.53444891 255.21144572 -100.54458618 253.29864502 C-102.22072112 250.12565675 -103.91044551 246.96201217 -105.64453125 243.8203125 C-110.82296355 234.39318732 -115.25213954 224.66276969 -119.67578125 214.86328125 C-121.12357784 211.65748319 -122.58407912 208.46496378 -124.13671875 205.30859375 C-128.32223017 196.74686416 -131.75490367 187.93802292 -135.140625 179.0390625 C-135.38804443 178.39119781 -135.63546387 177.74333313 -135.89038086 177.07583618 C-140.40354705 165.22275939 -140.40354705 165.22275939 -141.265625 160.1640625 C-144.53127618 163.11652698 -146.33643191 165.88800146 -148.18359375 169.87109375 C-148.71114258 171.00297119 -149.23869141 172.13484863 -149.78222656 173.30102539 C-150.34011691 174.52578386 -150.89706037 175.75097403 -151.453125 176.9765625 C-151.88256409 177.91385696 -151.88256409 177.91385696 -152.32067871 178.87008667 C-159.90499043 195.43577852 -166.39726388 212.29286099 -172.265625 229.5390625 C-172.84521973 231.2243103 -172.84521973 231.2243103 -173.43652344 232.94360352 C-176.63725554 241.84918197 -176.63725554 241.84918197 -177.265625 251.1640625 C-175.75130109 253.7569111 -174.62441854 255.28900971 -172.578125 257.3515625 C-171.55159979 258.47091092 -170.52557511 259.59071852 -169.5 260.7109375 C-168.96439453 261.27876953 -168.42878906 261.84660156 -167.87695312 262.43164062 C-165.26492661 265.23996489 -162.80617387 268.17533845 -160.328125 271.1015625 C-159.31861965 272.2794275 -158.30819816 273.45650791 -157.296875 274.6328125 C-155.29475055 276.96433532 -153.29470956 279.29761273 -151.296875 281.6328125 C-138.061792 297.1599911 -138.061792 297.1599911 -124.515625 312.4140625 C-121.45450747 315.78297064 -118.55554049 319.24176556 -115.703125 322.7890625 C-112.39496589 326.87967315 -108.92481163 330.61654637 -105.15625 334.28125 C-102.69504569 336.73228405 -100.44431027 339.3331246 -98.1796875 341.96484375 C-95.91407931 344.56798132 -93.59258948 347.11564974 -91.265625 349.6640625 C-88.42038272 352.78313261 -85.5936292 355.91161641 -82.828125 359.1015625 C-80.3752412 361.92959324 -77.86130037 364.69268011 -75.31591797 367.43774414 C-60.49330341 383.44098833 -60.49330341 383.44098833 -57.265625 390.1640625 C-63.48785549 389.00057817 -69.02190113 387.24665605 -74.765625 384.6015625 C-75.53898193 384.24932617 -76.31233887 383.89708984 -77.10913086 383.53417969 C-98.07074697 373.8638477 -116.30563746 361.87098465 -133.265625 346.1640625 C-133.85972168 345.61524414 -134.45381836 345.06642578 -135.06591797 344.50097656 C-169.49904733 312.31328183 -189.45821789 268.52562465 -195.265625 222.1640625 C-195.46478516 220.69646484 -195.46478516 220.69646484 -195.66796875 219.19921875 C-200.0612642 181.10393084 -191.49070972 140.71060274 -173.265625 107.1640625 C-172.90178711 106.48327637 -172.53794922 105.80249023 -172.16308594 105.10107422 C-167.45206467 96.31139727 -162.44022743 88.02591094 -156.265625 80.1640625 C-155.57984375 79.28621094 -154.8940625 78.40835938 -154.1875 77.50390625 C-135.9567526 54.715472 -114.87630986 37.10004963 -89.265625 23.1640625 C-88.65541504 22.82536133 -88.04520508 22.48666016 -87.41650391 22.13769531 C-60.60796292 7.34624318 -30.27747259 1.52111704 0 0 Z " fill="#000000" transform="translate(196.265625,-0.1640625)"/>
<path d="M0 0 C11.72834086 8.04886138 21.34808983 18.79585659 30 30 C30.72574219 30.92039062 31.45148438 31.84078125 32.19921875 32.7890625 C54.18197918 61.25539451 67.81135706 95.25041952 72 131 C72.11085938 131.88429687 72.22171875 132.76859375 72.3359375 133.6796875 C77.32132121 181.24294286 64.91843734 233.41483691 35.22558594 271.41699219 C33.9851258 273.01921201 32.79165841 274.64918176 31.6015625 276.2890625 C1.65859723 316.83084036 -45.48750638 343.97744585 -95 352 C-95.70157227 352.11569336 -96.40314453 352.23138672 -97.12597656 352.35058594 C-126.64422232 356.97524834 -156.31877434 353.55869801 -185 346 C-201.34501001 272.47315468 -169.35519184 182.06501122 -130.79663086 120.37475586 C-124.10664115 109.87282911 -116.71832776 99.94418384 -108.8515625 90.296875 C-106.30058719 87.13237398 -103.87130612 83.87817427 -101.4453125 80.6171875 C-100.96835938 80.08351563 -100.49140625 79.54984375 -100 79 C-99.34 79 -98.68 79 -98 79 C-97.76079834 78.43627686 -97.52159668 77.87255371 -97.27514648 77.29174805 C-95.72492031 74.50561497 -93.84959272 72.59032335 -91.59765625 70.33203125 C-90.26057617 68.99108398 -90.26057617 68.99108398 -88.89648438 67.62304688 C-87.96126953 66.69556641 -87.02605469 65.76808594 -86.0625 64.8125 C-85.16208984 63.90435547 -84.26167969 62.99621094 -83.33398438 62.06054688 C-77.19862905 55.94270863 -70.78301651 50.38400697 -64 45 C-62.73379479 43.9632321 -61.46922734 42.92445752 -60.20703125 41.8828125 C-42.55495303 27.48048926 -23.2135803 15.30341359 -3.8984375 3.26953125 C-1.8772895 2.00710312 -1.8772895 2.00710312 0 0 Z " fill="#000000" transform="translate(327,46)"/>
</svg>
