<?xml version="1.0" standalone="no"?>
<!DOCTYPE svg PUBLIC "-//W3C//DTD SVG 20010904//EN"
 "http://www.w3.org/TR/2001/REC-SVG-20010904/DTD/svg10.dtd">
<svg version="1.0" xmlns="http://www.w3.org/2000/svg"
 width="400.000000pt" height="400.000000pt" viewBox="0 0 400.000000 400.000000"
 preserveAspectRatio="xMidYMid meet">

<g transform="translate(0.000000,400.000000) scale(0.100000,-0.100000)"
fill="#000000" stroke="none">
<path d="M1727 3975 c-561 -77 -1067 -397 -1389 -879 -219 -328 -327 -688
-328 -1092 0 -297 44 -524 153 -779 216 -510 626 -904 1143 -1100 96 -37 311
-91 424 -106 134 -19 449 -16 575 5 347 58 641 185 918 395 68 51 275 253 333
325 101 125 248 372 292 491 6 17 22 62 37 100 85 229 127 551 105 814 -23
284 -82 498 -206 744 -296 590 -866 996 -1522 1082 -137 18 -400 18 -535 0z
m598 -257 c11 -52 25 -273 25 -413 0 -266 -27 -672 -71 -1080 -11 -104 -31
-306 -43 -448 -13 -141 -25 -258 -27 -260 -2 -2 -68 -52 -147 -111 -79 -59
-146 -106 -148 -103 -3 3 4 135 15 294 37 517 44 695 38 1088 -5 399 -17 545
-61 774 l-23 121 116 44 c64 25 157 61 206 80 107 42 113 43 120 14z m-277
-2815 c54 -44 147 -160 192 -238 l33 -57 -129 -130 c-71 -71 -150 -147 -176
-169 l-46 -39 -33 57 c-50 87 -112 166 -182 228 l-62 55 86 83 c209 200 259
247 265 247 4 0 27 -16 52 -37z"/>
</g>
</svg>
